<?xml version="1.0" standalone="no"?>
<!DOCTYPE svg PUBLIC "-//W3C//DTD SVG 20010904//EN"
 "http://www.w3.org/TR/2001/REC-SVG-20010904/DTD/svg10.dtd">
<svg version="1.0" xmlns="http://www.w3.org/2000/svg"
 width="500.000000pt" height="500.000000pt" viewBox="0 0 500.000000 500.000000"
 preserveAspectRatio="xMidYMid meet">
<metadata>
Created by potrace 1.16, written by Peter Selinger 2001-2019
</metadata>
<g transform="translate(0.000000,500.000000) scale(0.100000,-0.100000)"
fill="#000000" stroke="none">
<path d="M2417 2952 c-25 -11 113 -132 151 -132 328 -4 510 -4 504 2 -11 11
-200 84 -262 102 -93 26 -351 44 -393 28z"/>
<path d="M2135 2913 c-66 -20 -73 -28 -49 -55 11 -13 28 -35 37 -50 16 -26 22
-28 91 -28 103 0 256 12 256 20 0 17 -76 93 -111 110 -47 24 -150 26 -224 3z"/>
<path d="M2852 2789 c47 -5 146 -18 219 -29 149 -23 192 -42 267 -119 l45 -45
-32 62 -31 62 25 6 c14 3 72 4 128 2 l102 -4 -60 18 c-111 34 -348 58 -558 57
-170 -2 -182 -3 -105 -10z"/>
<path d="M3360 2711 c-13 -9 -12 -17 9 -57 14 -25 34 -52 45 -59 13 -8 63 -14
126 -17 l105 -3 -2 35 -1 35 14 -27 c8 -16 19 -28 24 -28 14 0 13 6 -6 46 -16
34 -33 45 -35 22 0 -7 -4 -2 -10 10 -5 13 -18 26 -29 29 -11 3 -18 8 -16 12 7
10 -208 12 -224 2z"/>
<path d="M2912 2383 l3 -48 75 -7 c118 -10 537 -9 624 2 81 10 126 30 126 55
0 22 -12 24 -66 10 -75 -19 -250 -27 -406 -17 -121 7 -140 11 -161 30 -20 19
-34 22 -111 22 l-87 0 3 -47z"/>
<path d="M1405 2066 c-63 -28 -95 -84 -95 -168 0 -70 30 -128 79 -156 71 -40
211 -22 211 28 0 28 -11 31 -60 14 -58 -20 -102 -11 -134 27 -22 25 -26 41
-26 91 0 53 3 63 30 90 32 31 39 32 160 16 20 -2 26 2 28 20 3 18 -4 26 -32
37 -44 18 -121 19 -161 1z"/>
<path d="M1862 2067 c-26 -31 -153 -330 -144 -339 18 -18 47 -3 65 35 l19 37
87 0 88 0 18 -40 c14 -30 24 -40 42 -40 16 0 23 6 23 18 0 17 -122 296 -143
330 -11 16 -42 16 -55 -1z"/>
<path d="M2201 2066 c-8 -9 -11 -65 -9 -177 l3 -164 24 -3 c32 -5 41 12 41 81
l0 58 42 -3 c41 -3 44 -6 81 -70 31 -55 43 -68 63 -68 35 0 31 34 -10 96 l-33
51 29 24 c21 17 31 35 34 64 10 86 -44 125 -172 125 -57 0 -85 -4 -93 -14z
m191 -66 c20 -25 16 -57 -10 -77 -9 -7 -40 -13 -69 -13 l-53 0 0 61 0 61 57
-4 c43 -4 61 -10 75 -28z"/>
<path d="M2626 2065 c-13 -14 -16 -42 -16 -161 0 -81 5 -154 10 -165 10 -17
22 -19 119 -19 78 0 110 4 113 13 12 30 -4 37 -88 37 l-84 0 0 55 0 55 81 0
c78 0 80 1 77 23 -3 20 -9 22 -80 25 l-78 3 0 49 0 50 86 0 c83 0 85 1 82 23
-3 21 -8 22 -104 25 -83 2 -105 0 -118 -13z"/>
<path d="M2995 2058 c-3 -13 -4 -93 -3 -178 l3 -155 25 0 25 0 5 120 5 120 95
-122 c72 -94 100 -123 118 -123 l22 0 -2 178 c-3 174 -3 177 -25 180 -28 4
-32 -12 -36 -142 l-2 -100 -94 122 c-95 124 -125 146 -136 100z"/>
<path d="M3410 2065 c-22 -26 5 -45 66 -45 l53 0 3 -147 3 -148 28 -3 27 -3 0
150 0 151 53 0 c60 0 80 10 75 36 -3 17 -15 19 -149 22 -121 2 -148 0 -159
-13z"/>
</g>
</svg>
